<svg width="880" height="874" viewBox="0 0 880 874" fill="none" xmlns="http://www.w3.org/2000/svg">
<path d="M222.108 219.547H1L221.014 437.007H440.754L222.108 219.547Z" fill="#212121"/>
<path d="M208.929 873.014C216.669 873.014 224.093 869.948 229.577 864.487L440.481 654.467L351.695 565.391C340.279 553.938 321.739 553.915 310.296 565.34L2.0946 873.014H208.929Z" fill="#212121"/>
<path d="M440.481 654.467L658.853 873.014V654.467L440.754 437.007H221.014L10.7867 644.789C5.22476 650.286 2.0946 657.781 2.0946 665.601V873.014L310.296 565.34C321.739 553.915 340.279 553.938 351.695 565.391L440.481 654.467Z" fill="#1037E8"/>
<path d="M222.108 1V219.547L440.754 437.007H660.494L870.252 228.125C875.767 222.634 878.866 215.173 878.866 207.39V1L570.562 307.758C559.154 319.11 540.719 319.118 529.301 307.775L440.481 219.547L222.108 1Z" fill="#1037E8"/>
<path d="M849.604 873.014C865.765 873.014 878.866 859.913 878.866 843.752V654.467H658.853V873.014H849.604Z" fill="#212121"/>
<path d="M672.032 1C664.292 1 656.868 4.06613 651.384 9.52731L440.481 219.547L529.301 307.775C540.719 319.118 559.154 319.11 570.562 307.758L878.866 1H672.032Z" fill="#212121"/>
<path d="M878.866 654.467L660.494 437.007H440.754L658.853 654.467H878.866Z" fill="white"/>
<path d="M222.108 1H31.2106C15.1067 1 2.02943 14.012 1.94877 30.1157L1 219.547H222.108V1Z" fill="white"/>
<path d="M222.108 1H31.2106C15.1067 1 2.02943 14.012 1.94877 30.1157L1 219.547M222.108 1V219.547M222.108 1L440.481 219.547M222.108 219.547H1M222.108 219.547L440.754 437.007M1 219.547L221.014 437.007M440.481 219.547L651.384 9.52731C656.868 4.06613 664.292 1 672.032 1H878.866M440.481 219.547L529.301 307.775C540.719 319.118 559.154 319.11 570.562 307.758L878.866 1M878.866 1V207.39C878.866 215.173 875.767 222.634 870.252 228.125L660.494 437.007M660.494 437.007L878.866 654.467M660.494 437.007H440.754M878.866 654.467V843.752C878.866 859.913 865.765 873.014 849.604 873.014H658.853M878.866 654.467H658.853M658.853 873.014L440.481 654.467M658.853 873.014V654.467M440.481 654.467L229.577 864.487C224.093 869.948 216.669 873.014 208.929 873.014H2.0946M440.481 654.467L351.695 565.391C340.279 553.938 321.739 553.915 310.296 565.34L2.0946 873.014M2.0946 873.014V665.601C2.0946 657.781 5.22476 650.286 10.7867 644.789L221.014 437.007M221.014 437.007H440.754M440.754 437.007L658.853 654.467" stroke="black" stroke-width="1.06541"/>
</svg>
